# xmcd
#
# Track frame offsets:
#	150
#	13629
#	26627
#	40460
#	54270
#	68865
#	93450
#	107307
#	120310
#	136738
#	149398
#	163466
#	175489
#	194900
#
# Disc length: 2793 seconds
#
# Revision: 0
# Processed by: cddbd v1.5.2PL0 Copyright (c) Steve Scherf et al.
# Submitted via: EasyCDDAExtractor 16.0.6.1
#
DISCID=c60ae70e
DTITLE=Various Artist - Η ΚΑΛΥΤΕΡΗ ΜΟΥΣΙΚΗ BLUES
DYEAR=2000
DGENRE=Blues
TTITLE0=SARAH VAUGHAN - A HUNDRED YEARS FROM TODAY
TTITLE1=JOHN LEE HOOKER - BABE LEE
TTITLE2=BILLIE HOLIDAY - ALL OF ME
TTITLE3=SONNY BOY WILLIAMSON - SPRINGTIME BLUES
TTITLE4=ELLA FITZGERALD - ROCK IT FOR ME
TTITLE5=NINA SIMONE - GOOD BAIT
TTITLE6=MUDDY WATERS - CLOSE TO YOU
TTITLE7=SARAH VAUGHAN - ALL TOO SOON
TTITLE8=B.B. KING - OUTSIDE HELP
TTITLE9=BILLIE HOLIDAY - BIG STUFF
TTITLE10=SONNY BOY WILLIAMSON - COAL and THE ICEMAN BLUES
TTITLE11=ELLA FITZGERALD - IF DREAMS COME TRUE
TTITLE12=NINA SIMONE - LITTLE GIRL BLUE
TTITLE13=MUDDY WATERS - JUST TO BE WITH YOU
EXTD=
EXTT0=
EXTT1=
EXTT2=
EXTT3=
EXTT4=
EXTT5=
EXTT6=
EXTT7=
EXTT8=
EXTT9=
EXTT10=
EXTT11=
EXTT12=
EXTT13=
PLAYORDER=
